<?xml version="1.0" encoding="utf-8"?>
<!-- Generator: Adobe Illustrator 24.1.2, SVG Export Plug-In . SVG Version: 6.00 Build 0)  -->
<svg version="1.1" id="Warstwa_3" xmlns="http://www.w3.org/2000/svg" xmlns:xlink="http://www.w3.org/1999/xlink" x="0px" y="0px"
	 viewBox="0 0 430 430" style="enable-background:new 0 0 430 430;" xml:space="preserve">
<style type="text/css"> .st0{fill:#ffc19e;}
	.st1{fill:#93999d;}
	.st2{fill:#ffc19e;}
	.st3{fill:none;}
</style>
<g>
	<g>
		<path class="st0" d="M229.85,221.75c-10.16,0-19.91-3.08-28.19-8.9c-2.71-1.91-3.36-5.65-1.46-8.36c1.91-2.71,5.65-3.37,8.36-1.46
			c6.25,4.4,13.62,6.72,21.29,6.72c20.45,0,37.09-16.64,37.09-37.09s-16.64-37.09-37.09-37.09c-7.67,0-15.04,2.32-21.29,6.72
			c-2.71,1.91-6.45,1.25-8.36-1.46c-1.91-2.71-1.25-6.45,1.46-8.36c8.28-5.82,18.03-8.9,28.19-8.9c27.07,0,49.09,22.02,49.09,49.09
			S256.92,221.75,229.85,221.75z"/>
		<path class="st0" d="M229.86,108.33c-3.31,0-6-2.69-6-6V80.08c0-3.31,2.69-6,6-6s6,2.69,6,6v22.25
			C235.86,105.64,233.17,108.33,229.86,108.33z"/>
		<path class="st0" d="M229.86,271.25c-3.31,0-6-2.69-6-6v-22.25c0-3.31,2.69-6,6-6s6,2.69,6,6v22.25
			C235.86,268.56,233.17,271.25,229.86,271.25z"/>
		<path class="st0" d="M295.33,244.13c-1.54,0-3.07-0.59-4.24-1.76l-15.74-15.74c-2.34-2.34-2.34-6.14,0-8.49
			c2.34-2.34,6.14-2.34,8.49,0l15.74,15.74c2.34,2.34,2.34,6.14,0,8.49C298.4,243.55,296.86,244.13,295.33,244.13z"/>
		<path class="st0" d="M322.44,178.66h-22.25c-3.31,0-6-2.69-6-6s2.69-6,6-6h22.25c3.31,0,6,2.69,6,6S325.76,178.66,322.44,178.66z"
			/>
		<path class="st0" d="M279.59,128.93c-1.54,0-3.07-0.59-4.24-1.76c-2.34-2.34-2.34-6.14,0-8.49l15.74-15.74
			c2.34-2.34,6.14-2.34,8.49,0c2.34,2.34,2.34,6.14,0,8.49l-15.74,15.74C282.66,128.34,281.13,128.93,279.59,128.93z"/>
	</g>
	<path class="st1" d="M211.12,262.09V82.75c0-22.24-18.09-40.33-40.33-40.33s-40.33,18.09-40.33,40.33v179.33
		c-18.15,13.01-28.9,33.79-28.9,56.26c0,38.17,31.06,69.23,69.23,69.23s69.23-31.06,69.23-69.23
		C240.02,295.88,229.27,275.09,211.12,262.09z M170.79,375.58c-31.56,0-57.23-25.67-57.23-57.23c0-19.49,9.78-37.46,26.16-48.06
		c0.01-0.01,0.03-0.02,0.04-0.03c0.1-0.06,0.19-0.13,0.28-0.2c0.07-0.05,0.14-0.1,0.21-0.16c0.07-0.05,0.13-0.11,0.19-0.17
		c0.09-0.08,0.17-0.15,0.25-0.23c0.03-0.03,0.05-0.05,0.07-0.08c0.38-0.39,0.71-0.83,0.96-1.3c0.08-0.15,0.15-0.31,0.22-0.46
		c0.01-0.02,0.02-0.03,0.02-0.05c0.07-0.17,0.14-0.35,0.2-0.54c0,0,0,0,0,0c0.04-0.14,0.08-0.28,0.11-0.42
		c0.01-0.05,0.03-0.1,0.04-0.14c0.02-0.1,0.03-0.21,0.05-0.31c0.01-0.09,0.03-0.19,0.04-0.28c0.01-0.08,0.01-0.16,0.02-0.23
		c0.01-0.12,0.02-0.25,0.02-0.37c0-0.02,0-0.03,0-0.05V82.75c0-15.62,12.71-28.33,28.33-28.33s28.33,12.71,28.33,28.33v182.49
		c0,0.02,0,0.03,0,0.05c0,0.12,0.01,0.25,0.02,0.37c0.01,0.08,0.01,0.16,0.02,0.23c0.01,0.09,0.03,0.19,0.04,0.28
		c0.02,0.1,0.03,0.21,0.05,0.31c0.01,0.05,0.03,0.1,0.04,0.14c0.03,0.14,0.07,0.28,0.11,0.42c0,0,0,0,0,0
		c0.06,0.18,0.12,0.36,0.2,0.54c0.01,0.02,0.02,0.03,0.02,0.05c0.07,0.16,0.14,0.31,0.22,0.46c0.26,0.47,0.58,0.91,0.96,1.3
		c0.03,0.03,0.05,0.06,0.07,0.08c0.08,0.08,0.17,0.15,0.25,0.23c0.06,0.06,0.13,0.12,0.19,0.17c0.07,0.05,0.14,0.1,0.21,0.16
		c0.09,0.07,0.18,0.14,0.28,0.2c0.01,0.01,0.03,0.02,0.04,0.03c16.38,10.61,26.16,28.57,26.16,48.06
		C228.02,349.9,202.34,375.58,170.79,375.58z"/>
	<path class="st0" d="M178.28,303.81V141.4c0-4.14-3.36-7.5-7.5-7.5s-7.5,3.36-7.5,7.5v162.41c-4.52,2.58-7.57,7.44-7.57,13.02
		c0,8.28,6.72,15,15,15h0.15c8.28,0,15-6.72,15-15C185.85,311.25,182.8,306.39,178.28,303.81z"/>
</g>
</svg>
