<?xml version="1.0"?>
<svg xmlns="http://www.w3.org/2000/svg" xmlns:xlink="http://www.w3.org/1999/xlink" id="Layer_2" data-name="Layer 2" viewBox="0 0 128 128" width="512" height="512"><defs><linearGradient id="linear-gradient" x1="102.668" y1="103.083" x2="10.597" y2="11.012" gradientUnits="userSpaceOnUse"><stop offset="0" stop-color="#ccc"/><stop offset="1" stop-color="#333"/></linearGradient></defs><path d="M44.531,62V52.25a1.75,1.75,0,0,1,3.5,0V62a1.75,1.75,0,0,1-3.5,0ZM64,83.333a9.123,9.123,0,0,1-9.112-9.112c0-4.51,6.509-11.948,7.813-13.394a1.807,1.807,0,0,1,2.6,0c1.3,1.445,7.813,8.884,7.813,13.394A9.123,9.123,0,0,1,64,83.333Zm0-3.5a5.619,5.619,0,0,0,5.612-5.612c0-2-2.96-6.34-5.612-9.542-2.653,3.2-5.613,7.543-5.613,9.542A5.619,5.619,0,0,0,64,79.833Zm64-42.747v14.25a1.75,1.75,0,0,1-1.75,1.75h-8.258v4.666a3.755,3.755,0,0,1-3.75,3.75h-6.167a3.755,3.755,0,0,1-3.75-3.75V53.086H83.469V118.25a9.761,9.761,0,0,1-9.75,9.75H54.281a9.761,9.761,0,0,1-9.75-9.75v-10H23.675v4.666a3.754,3.754,0,0,1-3.75,3.75H13.758a3.754,3.754,0,0,1-3.75-3.75v-4.666H1.75A1.75,1.75,0,0,1,0,106.5V92.248A1.75,1.75,0,0,1,1.75,90.5h8.258V85.831a3.754,3.754,0,0,1,3.75-3.75h6.167a3.754,3.754,0,0,1,3.75,3.75V90.5H44.531V75.25a1.75,1.75,0,0,1,3.5,0v43a6.257,6.257,0,0,0,6.25,6.25H73.719a6.257,6.257,0,0,0,6.25-6.25V27.876H48.031V39a1.75,1.75,0,0,1-3.5,0V27.876H41.5a1.75,1.75,0,0,1-1.75-1.75V19.083H22.333a1.75,1.75,0,0,1-1.75-1.75V1.75A1.75,1.75,0,0,1,22.333,0H81.719a1.75,1.75,0,0,1,0,3.5H24.083V15.583h79.833V3.5H98.188a1.75,1.75,0,0,1,0-3.5h7.479a1.75,1.75,0,0,1,1.75,1.75V17.333a1.75,1.75,0,0,1-1.75,1.75H88.25v7.043a1.75,1.75,0,0,1-1.75,1.75H83.469v7.46h20.856V30.669a3.755,3.755,0,0,1,3.75-3.75h6.167a3.755,3.755,0,0,1,3.75,3.75v4.667h8.258A1.75,1.75,0,0,1,128,37.086ZM81.719,24.376H84.75V19.083H43.25v5.293H81.719ZM10.008,104.748V94H3.5v10.75Zm10.167,1.75V85.831a.25.25,0,0,0-.25-.25H13.758a.25.25,0,0,0-.25.25v27.083a.25.25,0,0,0,.25.25h6.167a.25.25,0,0,0,.25-.25Zm3.5-1.75h4.387V94H23.675Zm12.97,0V94H31.562v10.75Zm7.887,0V94H40.145v10.75ZM83.469,49.586h4.387V38.836H83.469Zm12.97,0V38.836H91.355v10.75Zm7.887,0V38.836H99.938v10.75Zm10.167,1.75V30.669a.25.25,0,0,0-.25-.25h-6.167a.25.25,0,0,0-.25.25V57.752a.25.25,0,0,0,.25.25h6.167a.25.25,0,0,0,.25-.25Zm10.008-12.5h-6.508v10.75H124.5Z" style="fill:url(#linear-gradient)"/></svg>
