<svg id="Capa_1" enable-background="new 0 0 512 512" height="512" viewBox="0 0 512 512" width="512" xmlns="http://www.w3.org/2000/svg"><g><path d="m131.284 305.816h43.963v55.301h-43.963z" fill="#678d98"/><path d="m131.284 305.816h21.882v55.301h-21.882z" fill="#537983"/><path d="m175.231 250.862c0-5.543 4.509-10.052 10.052-10.052h157.096v-158.115c0-6.104-4.948-11.052-11.052-11.052h-312.775c-6.104 0-11.052 4.948-11.052 11.052v174.623h167.731z" fill="#dff6fd"/><g><path d="m61.693 71.642h-43.141c-6.104 0-11.052 4.948-11.052 11.052v174.623h43.141v-174.622c0-6.104 4.949-11.053 11.052-11.053z" fill="#c8effe"/></g><path d="m175.231 360.102h-92.577c-9.156 0-16.578 7.422-16.578 16.578v13.263c0 3.052 2.474 5.526 5.526 5.526h103.629z" fill="#7ca1b1"/><g><path d="m109.019 389.943v-13.263c0-9.156 7.422-16.578 16.578-16.578h-42.943c-9.156 0-16.578 7.422-16.578 16.578v13.263c0 3.052 2.474 5.526 5.526 5.526h42.943c-3.051 0-5.526-2.474-5.526-5.526z" fill="#678d98"/></g><path d="m175.231 250.862c0-.738.085-1.456.237-2.149h-160.468v-166.019c0-1.958 1.594-3.552 3.552-3.552h312.775c1.958 0 3.552 1.593 3.552 3.552v158.116h15v-158.116c0-10.229-8.322-18.552-18.552-18.552h-312.775c-10.229.001-18.552 8.323-18.552 18.552v205.569c0 10.23 8.323 18.552 18.552 18.552h156.679z" fill="#7ca1b1"/><g><path d="m42.121 288.264v-39.551h-27.121v-166.019c0-1.958 1.594-3.552 3.552-3.552h23.919c1.663-8.535 9.188-15 18.203-15h-42.122c-10.229.001-18.552 8.323-18.552 18.552v205.569c0 10.23 8.323 18.552 18.552 18.552h42.121c-10.229.001-18.552-8.321-18.552-18.551z" fill="#678d98"/></g><path d="m478.32 441.445v-190.583c0-6.104-4.948-11.052-11.052-11.052h-281.985c-6.104 0-11.052 4.948-11.052 11.052v190.584h304.089z" fill="#a8d3d8"/><g><path d="m205.177 420.315c-5.964 0-10.815-4.852-10.815-10.816v-138.744c0-5.964 4.852-10.816 10.815-10.816h10.348v-9.078c0-6.104 4.948-11.052 11.052-11.052h-41.293c-6.104 0-11.052 4.948-11.052 11.052v189.584h41.293v-20.13z" fill="#8ebac5"/></g><g fill="#7ca1b1"><path d="m281.704 441.474-1.437-1.029h-134.19c-3.052 0-5.526 2.474-5.526 5.526v24.477c0 3.052 2.474 5.526 5.526 5.526h147.075l.585-1.321z"/><path d="m506.474 440.445h-134.189l-1.462 1h.048l-11.72 33.151.573 1.379h146.75c3.052 0 5.526-2.474 5.526-5.526v-24.477c0-3.053-2.474-5.527-5.526-5.527z"/></g><g><path d="m201.861 409.499v-138.744c0-1.831 1.484-3.316 3.316-3.316h242.197c1.831 0 3.316 1.484 3.316 3.316v138.744c0 1.831-1.484 3.316-3.316 3.316h-242.197c-1.831 0-3.316-1.485-3.316-3.316z" fill="#fff"/></g><g><path d="m233.358 409.499v-138.744c0-1.831 1.484-3.316 3.316-3.316h-31.496c-1.831 0-3.316 1.484-3.316 3.316v138.744c0 1.831 1.484 3.316 3.316 3.316h31.496c-1.832 0-3.316-1.485-3.316-3.316z" fill="#eef5f6"/></g><g><path d="m447.374 420.315h-242.197c-5.964 0-10.815-4.852-10.815-10.816v-138.744c0-5.964 4.852-10.816 10.815-10.816h242.197c5.964 0 10.815 4.852 10.815 10.816v138.744c0 5.964-4.851 10.816-10.815 10.816zm-238.013-15h233.828v-130.376h-233.828z" fill="#c8effe"/></g><g><g><circle cx="228.107" cy="290.864" fill="#05e39c" r="7.5"/></g><g><circle cx="250.107" cy="290.864" fill="#05e39c" r="7.5"/></g><g><circle cx="272.107" cy="290.864" fill="#05e39c" r="7.5"/></g></g><g><path d="m183.618 470.448v-24.477c0-3.052 2.474-5.526 5.526-5.526h-43.067c-3.052 0-5.526 2.474-5.526 5.526v24.477c0 3.052 2.474 5.526 5.526 5.526h43.067c-3.052.001-5.526-2.474-5.526-5.526z" fill="#678d98"/></g><g><path d="m372.285 440.445h-92.019l12.886 35.53h66.572z" fill="#05e39c"/></g><g><path d="m280.266 440.445 12.886 35.53h25.518l-12.886-35.53z" fill="#0ed290"/></g><g fill="#8ebac5"><path d="m281.983 363.531-28.406-27.474c-1.339 5.179-5.371 9.274-10.516 10.698l28.497 27.562c1.298-5.195 5.299-9.321 10.425-10.786z"/><path d="m356.165 314.488-64.361 49.59c4.862 2.009 8.433 6.502 9.147 11.888l64.361-49.59c-4.862-2.008-8.432-6.501-9.147-11.888z"/><path d="m409.846 341.829-24.411-25.212c-1.463 5.128-5.586 9.131-10.78 10.431l24.411 25.212c1.463-5.128 5.586-9.132 10.78-10.431z"/></g><g><circle cx="239.07" cy="332.31" fill="#01d0fb" r="16"/></g><path d="m236 332.31c0-6.534 3.922-12.144 9.535-14.629-1.978-.876-4.162-1.371-6.465-1.371-8.837 0-16 7.163-16 16s7.163 16 16 16c2.303 0 4.487-.496 6.465-1.371-5.613-2.486-9.535-8.096-9.535-14.629z" fill="#01c0fa"/><g><circle cx="286.096" cy="377.943" fill="#fd5426" r="16"/></g><path d="m283.026 377.943c0-6.534 3.922-12.144 9.535-14.629-1.978-.876-4.162-1.371-6.465-1.371-8.837 0-16 7.163-16 16s7.163 16 16 16c2.303 0 4.487-.496 6.465-1.371-5.613-2.485-9.535-8.095-9.535-14.629z" fill="#ef4424"/><g><circle cx="371.019" cy="312.511" fill="#05e39c" r="16"/></g><g><circle cx="413.481" cy="356.365" fill="#fed402" r="16"/></g><g><path d="m98.243 201.634v-36.984c0-1.682-1.363-3.045-3.045-3.045h-28.416c-1.682 0-3.045 1.363-3.045 3.045v36.984z" fill="#fd5426"/><path d="m80.085 201.634v-36.984c0-1.682 1.363-3.045 3.045-3.045h-16.348c-1.682 0-3.045 1.363-3.045 3.045v36.984z" fill="#ef4424"/><path d="m160.876 201.634v-76.039c0-1.682-1.363-3.045-3.045-3.045h-28.416c-1.682 0-3.045 1.363-3.045 3.045v76.039z" fill="#fed402"/><path d="m143.021 201.634v-76.039c0-1.682 1.363-3.045 3.045-3.045h-16.651c-1.682 0-3.045 1.363-3.045 3.045v76.039z" fill="#fac600"/><path d="m223.509 201.634v-162.563c0-1.682-1.363-3.045-3.045-3.045h-28.416c-1.682 0-3.045 1.363-3.045 3.045v162.563z" fill="#05e39c"/><path d="m205.957 201.634v-162.563c0-1.682 1.363-3.045 3.045-3.045h-16.954c-1.682 0-3.045 1.363-3.045 3.045v162.563z" fill="#0ed290"/><path d="m286.142 201.634v-91.83c0-1.682-1.363-3.045-3.045-3.045h-28.416c-1.682 0-3.045 1.363-3.045 3.045v91.83z" fill="#01d0fb"/><path d="m268.892 201.634v-91.83c0-1.682 1.363-3.045 3.045-3.045h-17.257c-1.682 0-3.045 1.363-3.045 3.045v91.83z" fill="#01c0fa"/></g><path d="m286.5 200.634h-243.979c-4.142 0-7.5 3.358-7.5 7.5s3.358 7.5 7.5 7.5h243.979c4.143 0 7.5-3.358 7.5-7.5s-3.357-7.5-7.5-7.5z" fill="#8ebac5"/><g><g><path d="m82.109 110.064h-37.558c-4.142 0-7.5-3.358-7.5-7.5s3.358-7.5 7.5-7.5h37.559c4.142 0 7.5 3.358 7.5 7.5s-3.359 7.5-7.501 7.5z" fill="#01c0fa"/></g><g><path d="m82.109 133.411h-37.558c-4.142 0-7.5-3.358-7.5-7.5s3.358-7.5 7.5-7.5h37.559c4.142 0 7.5 3.358 7.5 7.5s-3.359 7.5-7.501 7.5z" fill="#01c0fa"/></g></g><path d="m367.949 312.511c0-6.534 3.922-12.144 9.535-14.629-1.978-.876-4.162-1.371-6.465-1.371-8.837 0-16 7.163-16 16s7.163 16 16 16c2.303 0 4.487-.496 6.465-1.371-5.614-2.485-9.535-8.095-9.535-14.629z" fill="#0ed290"/><path d="m410.41 356.365c0-6.534 3.922-12.144 9.535-14.629-1.978-.876-4.162-1.371-6.465-1.371-8.837 0-16 7.163-16 16s7.163 16 16 16c2.303 0 4.487-.496 6.465-1.371-5.613-2.486-9.535-8.096-9.535-14.629z" fill="#fac600"/></g></svg>