<svg id="Capa_1" enable-background="new 0 0 512.021 512.021" height="512" viewBox="0 0 512.021 512.021" width="512" xmlns="http://www.w3.org/2000/svg"><g><path d="m332.227.021h-319.975c-6.767 0-12.252 5.485-12.252 12.252v487.475c0 6.767 5.485 12.252 12.252 12.252h382.894c6.767 0 12.252-5.485 12.252-12.252v-424.556z" fill="#f4fbff"/><path d="m332.227.021h-20.084l75.171 75.171v424.556c0 6.767-5.485 12.252-12.252 12.252h20.084c6.766 0 12.252-5.485 12.252-12.252v-424.556z" fill="#e4f6ff"/><path d="m332.227.021 75.171 75.171h-69.932c-2.894 0-5.239-2.346-5.239-5.239z" fill="#ddeafb"/><path d="m387.314 75.192h20.084l-75.171-75.171v20.084z" fill="#cbe2ff"/><path d="m497.089 354.398 9.514 5.719c3.361 2.021 5.417 5.655 5.417 9.577v21.61c0 3.922-2.056 7.557-5.417 9.577l-9.514 5.719c-1.624.976-2.973 2.349-3.92 3.99l-21.076 36.504c-.947 1.641-1.462 3.496-1.495 5.39l-.196 11.099c-.069 3.921-2.189 7.519-5.586 9.48l-18.715 10.805c-3.396 1.961-7.572 1.998-11.003.097l-9.71-5.38c-1.657-.918-3.521-1.4-5.416-1.4h-42.151c-1.895 0-3.758.482-5.416 1.4l-9.71 5.38c-3.431 1.901-7.606 1.864-11.003-.097l-18.715-10.805c-3.396-1.961-5.516-5.559-5.586-9.48l-.196-11.099c-.033-1.894-.548-3.749-1.495-5.39l-21.076-36.504c-.947-1.641-2.296-3.014-3.92-3.99l-9.514-5.719c-3.361-2.021-5.417-5.655-5.417-9.577v-21.61c0-3.922 2.056-7.557 5.417-9.577l9.514-5.719c1.624-.976 2.973-2.349 3.92-3.99l21.076-36.504c.947-1.641 1.462-3.496 1.495-5.39l.196-11.099c.069-3.921 2.189-7.519 5.586-9.48l18.715-10.805c3.396-1.961 7.572-1.998 11.003-.097l9.71 5.38c1.657.918 3.521 1.4 5.416 1.4h42.151c1.895 0 3.758-.482 5.416-1.4l9.71-5.38c3.431-1.901 7.606-1.864 11.003.097l18.715 10.805c3.396 1.961 5.516 5.559 5.586 9.48l.196 11.099c.033 1.894.548 3.749 1.495 5.39l21.076 36.504c.947 1.641 2.296 3.014 3.92 3.99z" fill="#90d8f9"/><g><path d="m506.604 360.118-9.514-5.719c-1.624-.976-2.973-2.349-3.92-3.99l-21.076-36.504c-.947-1.641-1.462-3.496-1.495-5.39l-.196-11.099c-.069-3.921-2.189-7.519-5.586-9.48l-18.715-10.805c-3.397-1.961-7.572-1.998-11.003-.097l-6.292 3.486 12.845 7.416c3.396 1.961 5.516 5.559 5.586 9.48l.196 11.099c.033 1.894.548 3.749 1.495 5.39l21.076 36.504c.947 1.641 2.296 3.014 3.92 3.99l9.514 5.719c3.361 2.021 5.417 5.655 5.417 9.577v21.61c0 3.922-2.056 7.557-5.417 9.577l-9.514 5.719c-1.624.976-2.973 2.349-3.92 3.99l-21.076 36.504c-.947 1.641-1.462 3.496-1.495 5.39l-.196 11.099c-.069 3.921-2.189 7.519-5.586 9.48l-12.845 7.416 6.292 3.486c3.431 1.901 7.606 1.864 11.003-.097l18.715-10.805c3.396-1.961 5.516-5.559 5.586-9.48l.196-11.099c.033-1.894.548-3.749 1.495-5.39l21.076-36.504c.947-1.641 2.296-3.014 3.92-3.99l9.514-5.719c3.361-2.021 5.418-5.655 5.418-9.577v-21.61c-.001-3.922-2.057-7.557-5.418-9.577z" fill="#75cef9"/></g><circle cx="398.897" cy="380.5" fill="#f4fbff" r="63.852"/><path d="m398.897 316.648c-3.957 0-7.824.379-11.583 1.068 29.732 5.451 52.269 31.478 52.269 62.785s-22.538 57.333-52.269 62.785c3.758.689 7.625 1.068 11.583 1.068 35.265 0 63.852-28.588 63.852-63.852s-28.588-63.854-63.852-63.854z" fill="#e4f6ff"/><path d="m190.944 336.58c-36.982 0-66.963 29.98-66.963 66.963s29.98 66.963 66.963 66.963 66.963-29.98 66.963-66.963h-65.051c-1.056 0-1.912-.856-1.912-1.912z" fill="#dd636e"/><path d="m190.944 336.58v65.051c0 1.056.856 1.912 1.912 1.912h65.051c-.001-36.983-29.981-66.963-66.963-66.963z" fill="#90d8f9"/><path d="m104.274 286.403c0 1.056-.856 1.912-1.912 1.912h-53.349c-1.056 0-1.912-.856-1.912-1.912v-104.551c0-1.056.856-1.912 1.912-1.912h53.349c1.056 0 1.912.856 1.912 1.912z" fill="#dd636e"/><path d="m85.372 179.94v108.374h16.991c1.056 0 1.912-.856 1.912-1.912v-104.55c0-1.056-.856-1.912-1.912-1.912z" fill="#da4a54"/><path d="m188.27 286.403c0 1.056-.856 1.912-1.912 1.912h-53.349c-1.056 0-1.912-.856-1.912-1.912v-53.044c0-1.056.856-1.912 1.912-1.912h53.349c1.056 0 1.912.856 1.912 1.912z" fill="#90d8f9"/><path d="m169.368 231.447v56.867h16.991c1.056 0 1.912-.856 1.912-1.912v-53.044c0-1.056-.856-1.912-1.912-1.912h-16.991z" fill="#75cef9"/><g><path d="m311.596 144.456h-151.912c-4.267 0-7.726-3.459-7.726-7.726v-87.644c0-4.267 3.459-7.726 7.726-7.726s7.726 3.459 7.726 7.726v79.918h144.186c4.267 0 7.726 3.459 7.726 7.726s-3.458 7.726-7.726 7.726z" fill="#30579d"/></g><g><path d="m277.23 117.854c-1.076 0-2.153-.225-3.156-.674l-46.349-20.743-36.322 16.109c-3.901 1.729-8.466-.03-10.195-3.929-1.73-3.901.029-8.465 3.929-10.195l39.469-17.505c2.005-.888 4.29-.884 6.288.01l46.468 20.796 23.93-9.816c3.948-1.626 8.46.268 10.08 4.215 1.62 3.948-.268 8.461-4.215 10.08l-26.995 11.074c-.94.386-1.936.578-2.932.578z" fill="#dd636e"/></g><g><g><path d="m42.108 73.433h-4.904c-4.267 0-7.726-3.459-7.726-7.726s3.459-7.726 7.726-7.726h4.904c4.267 0 7.726 3.459 7.726 7.726s-3.458 7.726-7.726 7.726z" fill="#90d8f9"/></g><g><path d="m123.879 73.433h-56.41c-4.267 0-7.726-3.459-7.726-7.726s3.459-7.726 7.726-7.726h56.41c4.267 0 7.726 3.459 7.726 7.726s-3.459 7.726-7.726 7.726z" fill="#90d8f9"/></g></g><g><g><path d="m42.108 106.78h-4.904c-4.267 0-7.726-3.459-7.726-7.726s3.459-7.726 7.726-7.726h4.904c4.267 0 7.726 3.459 7.726 7.726 0 4.268-3.458 7.726-7.726 7.726z" fill="#dd636e"/></g><g><path d="m123.879 106.78h-56.41c-4.267 0-7.726-3.459-7.726-7.726s3.459-7.726 7.726-7.726h56.41c4.267 0 7.726 3.459 7.726 7.726 0 4.268-3.459 7.726-7.726 7.726z" fill="#dd636e"/></g></g><g><g><path d="m42.108 140.128h-4.904c-4.267 0-7.726-3.459-7.726-7.726s3.459-7.726 7.726-7.726h4.904c4.267 0 7.726 3.459 7.726 7.726s-3.458 7.726-7.726 7.726z" fill="#dd636e"/></g><g><path d="m123.879 140.128h-56.41c-4.267 0-7.726-3.459-7.726-7.726s3.459-7.726 7.726-7.726h56.41c4.267 0 7.726 3.459 7.726 7.726s-3.459 7.726-7.726 7.726z" fill="#dd636e"/></g></g><g><g><path d="m239.696 202.883h-4.904c-4.267 0-7.726-3.459-7.726-7.726s3.459-7.726 7.726-7.726h4.904c4.267 0 7.726 3.459 7.726 7.726 0 4.268-3.459 7.726-7.726 7.726z" fill="#90d8f9"/></g><g><path d="m321.466 202.883h-56.411c-4.267 0-7.726-3.459-7.726-7.726s3.459-7.726 7.726-7.726h56.411c4.267 0 7.726 3.459 7.726 7.726 0 4.268-3.459 7.726-7.726 7.726z" fill="#90d8f9"/></g></g><g><g><path d="m239.696 236.231h-4.904c-4.267 0-7.726-3.459-7.726-7.726s3.459-7.726 7.726-7.726h4.904c4.267 0 7.726 3.459 7.726 7.726s-3.459 7.726-7.726 7.726z" fill="#dd636e"/></g><g><path d="m321.466 236.231h-56.411c-4.267 0-7.726-3.459-7.726-7.726s3.459-7.726 7.726-7.726h56.411c4.267 0 7.726 3.459 7.726 7.726s-3.459 7.726-7.726 7.726z" fill="#dd636e"/></g></g><g><g><path d="m239.696 269.579h-4.904c-4.267 0-7.726-3.459-7.726-7.726s3.459-7.726 7.726-7.726h4.904c4.267 0 7.726 3.459 7.726 7.726s-3.459 7.726-7.726 7.726z" fill="#dd636e"/></g><g><path d="m321.466 269.579h-56.411c-4.267 0-7.726-3.459-7.726-7.726s3.459-7.726 7.726-7.726h56.411c4.267 0 7.726 3.459 7.726 7.726s-3.459 7.726-7.726 7.726z" fill="#dd636e"/></g></g><g><path d="m86.891 365.759h-42.475c-4.267 0-7.726-3.459-7.726-7.726s3.459-7.726 7.726-7.726h42.475c4.267 0 7.726 3.459 7.726 7.726s-3.458 7.726-7.726 7.726z" fill="#90d8f9"/></g><g><path d="m86.891 394.633h-42.475c-4.267 0-7.726-3.459-7.726-7.726s3.459-7.726 7.726-7.726h42.475c4.267 0 7.726 3.459 7.726 7.726s-3.458 7.726-7.726 7.726z" fill="#dd636e"/></g><g><path d="m86.891 423.508h-42.475c-4.267 0-7.726-3.459-7.726-7.726s3.459-7.726 7.726-7.726h42.475c4.267 0 7.726 3.459 7.726 7.726s-3.458 7.726-7.726 7.726z" fill="#dd636e"/></g><g><path d="m86.891 452.382h-42.475c-4.267 0-7.726-3.459-7.726-7.726s3.459-7.726 7.726-7.726h42.475c4.267 0 7.726 3.459 7.726 7.726s-3.458 7.726-7.726 7.726z" fill="#dd636e"/></g></g></svg>