<svg xmlns="http://www.w3.org/2000/svg" viewBox="0 0 32 40" x="0px" y="0px"><g>
<path d="M16,14.23a3.71,3.71,0,0,0-3.71,3.71,1,1,0,0,0,2,0A1.71,1.71,0,0,1,16,16.23a1,1,0,0,0,0-2Z" fill="#ffc19e" />
<path d="M16,11a7,7,0,1,0,7,7A7,7,0,0,0,16,11Zm0,12a5,5,0,1,1,5-5A5,5,0,0,1,16,23Z" fill="#93999e" />
<path d="M24.38,6H20.51L20.2,4.46A1.84,1.84,0,0,0,18.41,3h-5a1.84,1.84,0,0,0-1.79,1.46L11.32,6H7.62a5.26,5.26,0,0,0-.75,0A5.61,5.61,0,0,0,2,11.56V23.38A5.63,5.63,0,0,0,7.62,29H24.38A5.63,5.63,0,0,0,30,23.38V11.62A5.63,5.63,0,0,0,24.38,6ZM28,23.38A3.62,3.62,0,0,1,24.38,27H7.62A3.62,3.62,0,0,1,4,23.38V11.56A3.6,3.6,0,0,1,7.15,8a3.2,3.2,0,0,1,.47,0h4.51a1,1,0,0,0,1-.8L13.56,5h4.7l.46,2.2a1,1,0,0,0,1,.8h4.68A3.62,3.62,0,0,1,28,11.62Z" fill="#93999e" />
<path d="M25,9H21a1,1,0,0,0,0,2h4a1,1,0,0,0,0-2Z" fill="#93999e" />
</g></svg>
