<svg width="29" height="29" xmlns="http://www.w3.org/2000/svg">

 <g>
  <title>Layer 1</title>
  <g stroke="null" id="svg_1">
   <path stroke="null" id="svg_2" fill="#ffc19e" d="m14.5,12.6911a3.79154,3.79154 0 0 0 -3.79154,3.79154a1.02198,1.02198 0 0 0 2.04396,0a1.74758,1.74758 0 0 1 1.74758,-1.74758a1.02198,1.02198 0 0 0 0,-2.04396z"/>
   <path stroke="null" id="svg_3" fill="#93999e" d="m14.5,9.39011a7.15385,7.15385 0 1 0 7.15385,7.15385a7.15385,7.15385 0 0 0 -7.15385,-7.15385zm0,12.26374a5.10989,5.10989 0 1 1 5.10989,-5.10989a5.10989,5.10989 0 0 1 -5.10989,5.10989z"/>
   <path stroke="null" id="svg_4" fill="#93999e" d="m23.06418,4.28022l-3.95505,0l-0.31681,-1.57385a1.88044,1.88044 0 0 0 -1.82934,-1.49209l-5.10989,0a1.88044,1.88044 0 0 0 -1.82934,1.49209l-0.30659,1.57385l-3.78132,0a5.3756,5.3756 0 0 0 -0.76648,0a5.7333,5.7333 0 0 0 -4.97703,5.6822l0,12.07978a5.75374,5.75374 0 0 0 5.74352,5.74352l17.12835,0a5.75374,5.75374 0 0 0 5.74352,-5.74352l0,-12.01846a5.75374,5.75374 0 0 0 -5.74352,-5.74352zm3.69956,17.76198a3.69956,3.69956 0 0 1 -3.69956,3.69956l-17.12835,0a3.69956,3.69956 0 0 1 -3.69956,-3.69956l0,-12.07978a3.67912,3.67912 0 0 1 3.21923,-3.63824a3.27033,3.27033 0 0 1 0.48033,0l4.60912,0a1.02198,1.02198 0 0 0 1.02198,-0.81758l0.43945,-2.24835l4.8033,0l0.47011,2.24835a1.02198,1.02198 0 0 0 1.02198,0.81758l4.78286,0a3.69956,3.69956 0 0 1 3.67912,3.69956l0,12.01846z"/>
   <path stroke="null" id="svg_5" fill="#93999e" d="m23.6978,7.34615l-4.08791,0a1.02198,1.02198 0 0 0 0,2.04396l4.08791,0a1.02198,1.02198 0 0 0 0,-2.04396z"/>
  </g>
 </g>
</svg>