<svg id="Flat" height="512" viewBox="0 0 512 512" width="512" xmlns="http://www.w3.org/2000/svg"><g fill="#88c791"><path d="m88 288s0-40-56-24c0 0 0 48 56 24z"/><path d="m88 288s0-40 56-24c0 0 0 48-56 24z"/><path d="m240 256s-24-40-72-24c0 0 16 72 72 24z"/><path d="m240 184s8-40-40-40c0 0-8 48 40 40z"/><path d="m240 224s16-40 72-32c0 0-8 72-72 32z"/><path d="m368 160s16-40-56-48c0 0-8 72 56 48z"/><path d="m488 144s-42.667-16-64 48c0 0 56.888 32 64-48z"/><path d="m344 24s-16 56 40 56c0 0 32-48-40-56z"/><path d="m488 56s-56-8-56 48c0 0 56 16 56-48z"/></g><path d="m88 344a8 8 0 0 1 -8-8v-47.532a8 8 0 0 1 16 0v47.532a8 8 0 0 1 -8 8z" fill="#6a9c72"/><path d="m112 400a8 8 0 0 1 -8-8v-21.334l-16-21.334-16 21.334v21.334a8 8 0 1 1 -16 0v-24a8 8 0 0 1 1.6-4.8l24-32a8 8 0 0 1 12.8 0l24 32a8 8 0 0 1 1.6 4.8v24a8 8 0 0 1 -8 8z" fill="#bfb1a3"/><path d="m303.989 448a8 8 0 0 1 -7.882-6.686l-7.578-45.471-48.529-48.531-25.118 25.119-23.392 62.377a8 8 0 0 1 -14.981-5.618l24-64a7.993 7.993 0 0 1 1.834-2.848l32-32a8 8 0 0 1 11.314 0l56 56a8 8 0 0 1 2.234 4.342l8 48a8 8 0 0 1 -6.576 9.207 8.194 8.194 0 0 1 -1.326.109z" fill="#bfb1a3"/><path d="m240 432a8 8 0 0 1 -8-8v-29.334l-22.4-29.866a8 8 0 0 1 12.8-9.6l24 32a8 8 0 0 1 1.6 4.8v32a8 8 0 0 1 -8 8z" fill="#bfb1a3"/><path d="m240 344a8 8 0 0 1 -8-8v-152a8 8 0 0 1 16 0v152a8 8 0 0 1 -8 8z" fill="#6a9c72"/><path d="m400 344a8 8 0 0 1 -8-8v-191.016l-15.762-63.045a8 8 0 1 1 15.521-3.88l16 64a7.93 7.93 0 0 1 .241 1.941v192a8 8 0 0 1 -8 8z" fill="#6a9c72"/><path d="m319.991 496a8 8 0 0 1 -6.649-12.438l30.994-46.491 7.743-54.2a8 8 0 0 1 1.774-3.989l40-48a8 8 0 0 1 11.8-.536l56 56a8 8 0 0 1 2.187 4.088l7.525 37.625 22.288 22.287a8 8 0 1 1 -11.314 11.314l-24-24a8 8 0 0 1 -2.188-4.088l-7.524-37.625-48.094-48.092-32.933 39.522-7.678 53.754a8.01 8.01 0 0 1 -1.264 3.306l-32 48a7.992 7.992 0 0 1 -6.667 3.563z" fill="#bfb1a3"/><path d="m368 488a8 8 0 0 1 -7.35-11.153l23.35-54.49v-22.357a8 8 0 0 1 1.753-5l32-40a8 8 0 1 1 12.494 10l-30.247 37.806v21.194a8 8 0 0 1 -.647 3.151l-24 56a8 8 0 0 1 -7.353 4.849z" fill="#bfb1a3"/><path d="m431.993 488a8 8 0 0 1 -7.755-6.062l-7.312-29.238-29.726-22.3a8 8 0 1 1 9.6-12.8l32 24a8 8 0 0 1 2.96 4.46l8 32a8.007 8.007 0 0 1 -7.767 9.94z" fill="#bfb1a3"/><path d="m400.007 216a7.993 7.993 0 0 1 -6.665-3.563l-32-48a8 8 0 0 1 13.313-8.875l32 48a8 8 0 0 1 -6.648 12.438z" fill="#6a9c72"/><path d="m400 224a8 8 0 0 1 -5.657-13.657l24-24a8 8 0 1 1 11.314 11.314l-24 24a7.976 7.976 0 0 1 -5.657 2.343z" fill="#6a9c72"/><path d="m399.994 152a8 8 0 0 1 -6.242-13l32-40a8 8 0 1 1 12.494 10l-32 40a7.982 7.982 0 0 1 -6.252 3z" fill="#6a9c72"/><path d="m23.989 184a8 8 0 0 1 -.874-15.952c64.34-7.149 149.177-63 226.937-149.4a8 8 0 0 1 11.893 10.7c-37.481 41.652-78.103 77.709-117.471 104.282-43.574 29.415-83.813 46.345-119.591 50.32a8.186 8.186 0 0 1 -.894.05z" fill="#ffd33a"/><path d="m488 344h-464a8 8 0 0 1 0-16h464a8 8 0 0 1 0 16z" fill="#996046"/><path d="m199.432 24.001 65.997-9.43-9.43 65.997z" fill="#ffd33a"/></svg>