<svg id="Capa_1" enable-background="new 0 0 503.759 503.759" height="512" viewBox="0 0 503.759 503.759" width="512" xmlns="http://www.w3.org/2000/svg"><g><g><path d="m64.151 45.887h-51.03c-2.09 0-3.313-2.354-2.112-4.064l25.515-36.34c1.028-1.464 3.197-1.464 4.224 0l25.515 36.34c1.201 1.71-.022 4.064-2.112 4.064z" fill="#99e6fc"/><path d="m462.258 496.788v-51.03c0-2.09 2.354-3.313 4.064-2.112l36.34 25.515c1.464 1.028 1.464 3.197 0 4.224l-36.34 25.515c-1.71 1.201-4.064-.022-4.064-2.112z" fill="#99e6fc"/><g><path d="m38.636 478.773c-4.143 0-7.5-3.358-7.5-7.5v-440.386c0-4.142 3.357-7.5 7.5-7.5s7.5 3.358 7.5 7.5v440.386c0 4.142-3.358 7.5-7.5 7.5z" fill="#99e6fc"/></g><g><path d="m53.781 108.322h-15.145c-4.143 0-7.5-3.358-7.5-7.5s3.357-7.5 7.5-7.5h15.146c4.143 0 7.5 3.358 7.5 7.5s-3.358 7.5-7.501 7.5z" fill="#99e6fc"/></g><g><path d="m53.781 180.475h-15.145c-4.143 0-7.5-3.358-7.5-7.5s3.357-7.5 7.5-7.5h15.146c4.143 0 7.5 3.358 7.5 7.5s-3.358 7.5-7.501 7.5z" fill="#99e6fc"/></g><g><path d="m53.781 252.627h-15.145c-4.143 0-7.5-3.358-7.5-7.5s3.357-7.5 7.5-7.5h15.146c4.143 0 7.5 3.358 7.5 7.5s-3.358 7.5-7.501 7.5z" fill="#99e6fc"/></g><g><path d="m53.781 324.779h-15.145c-4.143 0-7.5-3.358-7.5-7.5s3.357-7.5 7.5-7.5h15.146c4.143 0 7.5 3.358 7.5 7.5s-3.358 7.5-7.501 7.5z" fill="#99e6fc"/></g><g><path d="m53.781 396.932h-15.145c-4.143 0-7.5-3.358-7.5-7.5s3.357-7.5 7.5-7.5h15.146c4.143 0 7.5 3.358 7.5 7.5s-3.358 7.5-7.501 7.5z" fill="#99e6fc"/></g><path d="m403.038 229.645h-29.084v-10.999c0-29.669 24.052-53.721 53.721-53.721h29.085c3.037 0 5.499 2.462 5.499 5.499-.001 32.707-26.515 59.221-59.221 59.221z" fill="#bbec6c"/><path d="m351.933 229.645h22.02v-8.215c0-19.796-16.048-35.845-35.845-35.845h-13.805c-4.537 0-8.215 3.678-8.215 8.215 0 19.797 16.049 35.845 35.845 35.845z" fill="#bbec6c"/><path d="m335.562 193.8c0-3.911 2.736-7.178 6.397-8.006-1.265-.135-2.549-.208-3.85-.208h-13.805c-4.537 0-8.215 3.678-8.215 8.214 0 19.797 16.048 35.845 35.845 35.845h19.474c-19.798 0-35.846-16.048-35.846-35.845z" fill="#a2e62e"/><g><path d="m373.953 478.773c-4.143 0-7.5-3.358-7.5-7.5v-244.628c0-4.142 3.357-7.5 7.5-7.5s7.5 3.358 7.5 7.5v244.628c0 4.142-3.357 7.5-7.5 7.5z" fill="#bbec6c"/></g><g fill="#bbec6c"><path d="m390.253 356.068h-16.3v-11.855c0-26.624 21.583-48.207 48.207-48.207h7.22c5.015 0 9.08 4.065 9.08 9.08v2.775c0 26.624-21.583 48.207-48.207 48.207z"/><path d="m274.657 366.593h-18.525v-18.525c0-24.037 19.486-43.523 43.523-43.523h8.646c5.456 0 9.878 4.423 9.878 9.878v8.646c0 24.039-19.486 43.524-43.522 43.524z"/><path d="m241.21 366.593h14.922v-14.922c0-15.953-12.933-28.886-28.886-28.886h-9.46c-3.017 0-5.462 2.446-5.462 5.462v9.46c0 15.954 12.933 28.886 28.886 28.886z"/></g><path d="m231.234 337.708v-9.46c0-1.992 1.07-3.73 2.663-4.684-2.136-.504-4.361-.778-6.651-.778h-9.46c-3.017 0-5.462 2.445-5.462 5.462v9.46c0 15.953 12.932 28.886 28.886 28.886h14.922v-.281c-14.065-1.944-24.898-14.006-24.898-28.605z" fill="#a2e62e"/><g><path d="m256.132 478.773c-4.143 0-7.5-3.358-7.5-7.5v-115.601c0-4.142 3.357-7.5 7.5-7.5s7.5 3.358 7.5 7.5v115.602c0 4.141-3.358 7.499-7.5 7.499z" fill="#bbec6c"/></g><path d="m161.377 430.84h-13.053v-16.789c0-19.099 15.483-34.581 34.581-34.581h5.535c4.152 0 7.519 3.366 7.519 7.519v9.271c0 19.098-15.483 34.58-34.582 34.58z" fill="#bbec6c"/><path d="m148.324 430.84h-11.53c-14.008 0-25.364-11.356-25.364-25.364v-9.621c0-2.344 1.9-4.244 4.244-4.244h7.286c14.008 0 25.364 11.356 25.364 25.364z" fill="#bbec6c"/><path d="m125.696 405.477v-9.621c0-1.634.933-3.036 2.287-3.745-1.624-.326-3.302-.499-5.022-.499h-7.286c-2.344 0-4.244 1.9-4.244 4.244v9.621c0 14.008 11.356 25.364 25.364 25.364h11.53v-.149c-12.722-1.365-22.629-12.132-22.629-25.215z" fill="#a2e62e"/><g><path d="m148.324 478.773c-4.143 0-7.5-3.358-7.5-7.5v-49.466c0-4.142 3.357-7.5 7.5-7.5s7.5 3.358 7.5 7.5v49.466c0 4.142-3.357 7.5-7.5 7.5z" fill="#bbec6c"/></g><path d="m369.596 42.221-31.065-3.78c-4.109-.5-7.852 2.427-8.352 6.54-.5 4.112 2.428 7.851 6.539 8.351l13.178 1.603-134.786 106.291-5.878-12.57c-.98-2.096-2.873-3.623-5.129-4.136-2.254-.511-4.623.042-6.414 1.508l-115.376 94.387c-3.206 2.623-3.679 7.348-1.056 10.554 1.482 1.813 3.637 2.751 5.809 2.751 1.671 0 3.352-.555 4.745-1.695l107.916-88.284 5.803 12.411c.97 2.075 2.835 3.592 5.063 4.121 2.227.528 4.575.01 6.375-1.409l144.221-113.731v17.582c0 4.142 3.357 7.5 7.5 7.5s7.5-3.358 7.5-7.5v-33.048c0-3.792-2.83-6.988-6.593-7.446z" fill="#f37c7c"/></g><g><path d="m470.258 478.773h-462.758c-4.143 0-7.5-3.358-7.5-7.5s3.357-7.5 7.5-7.5h462.758c4.143 0 7.5 3.358 7.5 7.5s-3.358 7.5-7.5 7.5z" fill="#99e6fc"/></g></g></svg>