<?xml version="1.0" encoding="iso-8859-1"?>
<!-- Generator: Adobe Illustrator 19.0.0, SVG Export Plug-In . SVG Version: 6.00 Build 0)  -->
<svg version="1.1" id="Capa_1" xmlns="http://www.w3.org/2000/svg" xmlns:xlink="http://www.w3.org/1999/xlink" x="0px" y="0px"
	 viewBox="0 0 317.6 317.6" style="enable-background:new 0 0 317.6 317.6;" xml:space="preserve">
<path style="fill:#FFFFFF;" d="M176,105.6c-4.8-0.8-10-1.2-14.8-1.2C166.4,104.4,171.6,104.8,176,105.6z M171.2,92.8h-24.8v-12h24.8
	V92.8z M81.6,136.4c-18.4,18.4-30,43.2-31.6,70.8h63.6h44.8h45.2h63.6c-1.6-27.6-13.2-52.4-31.6-70.8
	c-15.6-15.6-36.4-26.8-59.2-30.4h0.4c4,0.4,7.2-2.4,7.2-6v-5.2V80.4c0-6.8-5.6-12-12-12h-6.4h-12.4h-6.4c-6.8,0-12,5.6-12,12v14.4
	v5.2l0,0c0,3.6,3.6,6.8,7.2,6C118,109.6,97.2,120.4,81.6,136.4z M141.2,105.6c1.2,0,2-0.4,3.2-0.4l0,0
	C142.8,105.6,142,105.6,141.2,105.6z"/>
<g>
	<path style="fill:#93999e;" d="M183.6,94.4V80c0-3.2-1.2-6.4-3.6-8.4l0,0l0,0l0,0c-2.4-2.4-5.2-3.6-8.4-3.6h-6.4l-0.4-62
		c0-3.6-2.8-6-6.4-6s-6,2.8-6,6.4l0.4,61.6h-6.4c-3.2,0-6.4,1.2-8.4,3.6l0,0l0,0l0,0c-2.4,2.4-3.6,5.2-3.6,8.4v14.4
		c-24,4.8-45.2,16.8-61.6,33.2c-22,22-35.6,52.4-35.6,85.6c0,3.6,2.8,6.4,6.4,6.4h64c1.6,11.6,6.8,22,14.8,30
		c9.2,9.2,22,15.2,36.4,15.2c14,0,26.8-5.6,36.4-15.2c8-8,13.2-18.4,14.8-30h64c3.6,0,6.4-2.8,6.4-6.4c0-33.6-13.6-63.6-35.6-85.6
		C228,111.2,206.8,99.6,183.6,94.4z M146.4,80.4h24.8v12c-0.4,0-0.8,0-1.2,0c-0.4,0-0.8,0-1.6,0c-0.4,0-0.4,0-0.8,0
		c-3.2-0.4-6-0.4-9.2-0.4c-2.8,0-6,0-8.8,0.4c-0.4,0-0.4,0-0.8,0c-0.8,0-1.2,0-2,0h-0.4V80.4L146.4,80.4z M186,240.4
		c-7.2,7.2-16.8,11.2-27.6,11.2c-10.8,0-20.4-4.4-27.6-11.2c-5.6-5.6-9.6-13.2-10.8-21.2h38.4h38.4
		C195.6,227.6,191.6,234.8,186,240.4z M203.6,206.8h-45.2h-45.2H50c1.6-27.6,13.2-52.4,31.6-70.8c16-16,36.8-26.8,60-30.4
		c2.4-0.4,4.8-0.8,7.2-0.8c0.8,0,1.2,0,2,0c2.4,0,5.2-0.4,7.6-0.4c2.8,0,5.6,0,8,0.4c0.4,0,1.2,0,1.6,0c2.4,0.4,4.8,0.4,7.2,0.8
		c23.2,3.6,44,14.8,60,30.4c18.4,18.4,30,43.2,31.6,70.8H203.6z"/>
</g>
<g>
	<path style="fill:#FFFFFF;" d="M146.4,92.4c4-0.4,8-0.4,12-0.4c4.4,0,8.4,0.4,12.8,0.8v-12h-24.8V92.4z"/>
	<path style="fill:#FFFFFF;" d="M158.4,219.2H120c1.2,8.4,5.2,15.6,10.8,21.2c7.2,7.2,16.8,11.2,27.6,11.2s20.4-4.4,27.6-11.2
		c5.6-5.6,9.6-13.2,10.8-21.2H158.4z"/>
</g>
</svg>
