<svg width="362" height="362" xmlns="http://www.w3.org/2000/svg">
 <defs>
  <mask id="c">
   <g id="svg_1" display="block">
    <path id="svg_2" d="m416.73212,250c0,92.7002 -75.1498,167.85001 -167.85001,167.85001s-167.85001,-75.1498 -167.85001,-167.85001s75.1498,-167.85001 167.85001,-167.85001s167.85001,75.1498 167.85001,167.85001z" fill="#121331"/>
    <path id="svg_3" d="m416.73212,250c0,92.7002 -75.1498,167.85001 -167.85001,167.85001s-167.85001,-75.1498 -167.85001,-167.85001s75.1498,-167.85001 167.85001,-167.85001s167.85001,75.1498 167.85001,167.85001z" fill="#121331"/>
    <path id="svg_4" d="m416.732,250c0,92.7 -75.15,167.85 -167.85,167.85c-92.7,0 -167.85,-75.15 -167.85,-167.85c0,-92.7 75.15,-167.85 167.85,-167.85c92.7,0 167.85,75.15 167.85,167.85z" stroke-width="23.499" stroke="#92999D" fill-opacity="0" stroke-linejoin="round" stroke-linecap="round"/>
   </g>
  </mask>
  <mask id="b">
   <g id="svg_5" display="block">
    <path id="svg_6" d="m416.73212,250c0,92.7002 -75.1498,167.85001 -167.85001,167.85001s-167.85001,-75.1498 -167.85001,-167.85001s75.1498,-167.85001 167.85001,-167.85001s167.85001,75.1498 167.85001,167.85001z" fill="#121331"/>
    <path id="svg_7" d="m416.73212,250c0,92.7002 -75.1498,167.85001 -167.85001,167.85001s-167.85001,-75.1498 -167.85001,-167.85001s75.1498,-167.85001 167.85001,-167.85001s167.85001,75.1498 167.85001,167.85001z" fill="#121331"/>
    <path id="svg_8" d="m416.732,250c0,92.7 -75.15,167.85 -167.85,167.85c-92.7,0 -167.85,-75.15 -167.85,-167.85c0,-92.7 75.15,-167.85 167.85,-167.85c92.7,0 167.85,75.15 167.85,167.85z" stroke-width="23.499" stroke="#92999D" fill-opacity="0" stroke-linejoin="round" stroke-linecap="round"/>
   </g>
  </mask>
  <clipPath id="a">
   <path id="svg_9" d="m0,0l500,0l0,500l-500,0l0,-500z"/>
  </clipPath>
 </defs>
 <g>
  <title>Layer 1</title>
  <g id="svg_10" clip-path="url(#a)">
   <g id="svg_11" display="block">
    <path id="svg_12" fill="none" d="m255.015,181l-111.342,-73.975l0,147.95l111.342,-73.975z" stroke-width="23.499" stroke="#ffc19e" stroke-linejoin="round" stroke-linecap="round"/>
   </g>
   <path id="svg_13" fill="none" d="m348.732,181c0,92.7 -75.15,167.85 -167.85,167.85c-92.7,0 -167.85,-75.15 -167.85,-167.85c0,-92.7 75.15,-167.85 167.85,-167.85c92.7,0 167.85,75.15 167.85,167.85z" stroke-width="23.499" stroke="#92999D" stroke-linejoin="round" stroke-linecap="round"/>
  </g>
 </g>
</svg>