<svg id="Capa_1" enable-background="new 0 0 512.169 512.169" height="512" viewBox="0 0 512.169 512.169" width="512" xmlns="http://www.w3.org/2000/svg"><g><path d="m253.316 351.576 27.713-16 88.234 152.825c4.289 7.428 1.744 16.927-5.685 21.216l-.812.469c-7.428 4.289-16.927 1.744-21.216-5.685z" fill="#d1a08f"/><path d="m365.471 508.229c-.711.608-1.473 1.144-2.297 1.617-2.524 1.454-5.274 2.154-7.994 2.154-5.522 0-10.899-2.874-13.866-8.005l-87.998-152.415 27.712-16.009 5.151 8.921-12.259 7.088 87.998 152.415c.957 1.659 2.163 3.081 3.553 4.234z" fill="#c68d7a"/><path d="m258.827 351.576-27.713-16-88.234 152.825c-4.289 7.428-1.744 16.927 5.685 21.216l.812.469c7.428 4.289 16.927 1.744 21.216-5.685z" fill="#d1a08f"/><path d="m167.275 508.229c-2.895 2.452-6.573 3.771-10.312 3.771-2.72 0-5.47-.7-7.994-2.153-7.654-4.409-10.271-14.196-5.851-21.85l87.998-152.426 15.453 8.921-82.847 143.504c-3.947 6.831-2.288 15.361 3.553 20.233z" fill="#c68d7a"/><path d="m265.087 511.998h-18c-3.866 0-7-3.134-7-7v-497.996c0-3.866 3.134-7 7-7h18c3.866 0 7 3.134 7 7v497.996c0 3.866-3.134 7-7 7z" fill="#d1a08f"/><path d="m255.541 0v512h-8.453c-3.866 0-7-3.134-7-7v-498c0-3.866 3.134-7 7-7z" fill="#c68d7a"/><path d="m448.085 361.999h-383.997v-322.997c0-3.866 3.134-7 7-7h369.997c3.866 0 7 3.134 7 7z" fill="#eaf6ff"/><path d="m448.082 331.399v30.604h-383.99v-323.006c0-3.866 3.134-7 7-7h13.604v283.949c0 8.534 6.918 15.453 15.453 15.453z" fill="#d8ecfe"/><path d="m359.086 128.001h18c3.866 0 7 3.134 7 7v184.998h-32v-184.998c0-3.866 3.134-7 7-7z" fill="#aee69c"/><path d="m367.542 128v191.995h-15.453v-184.995c0-3.866 3.134-7 7-7z" fill="#89daa4"/><path d="m295.087 160.001h18c3.866 0 7 3.134 7 7v152.999h-32v-152.999c0-3.866 3.134-7 7-7z" fill="#aee69c"/><path d="m303.537 159.997v159.997h-15.453v-152.997c0-3.866 3.134-7 7-7z" fill="#89daa4"/><path d="m473.085 383.999h-433.996c-3.866 0-7-3.134-7-7v-17.575c0-3.866 3.134-7 7-7h433.996c3.866 0 7 3.134 7 7v17.575c0 3.866-3.134 7-7 7z" fill="#d8ecfe"/><path d="m473.085 383.999h-433.996c-3.866 0-7-3.134-7-7v-17.575c0-3.866 3.134-7 7-7h433.996c3.866 0 7 3.134 7 7v17.575c0 3.866-3.134 7-7 7z" fill="#68748f"/><path d="m62.99 352.425v31.575h-23.906c-3.866 0-7-3.134-7-7v-17.575c0-3.866 3.134-7 7-7z" fill="#5d6980"/><path d="m231.087 192.001h18c3.866 0 7 3.134 7 7v120.999h-32v-120.999c0-3.866 3.134-7 7-7z" fill="#fe646f"/><path d="m239.542 192.005v127.99h-15.453v-120.99c0-3.866 3.134-7 7-7z" fill="#fd4755"/><path d="m167.088 224h18c3.866 0 7 3.134 7 7v88.999h-32v-88.999c0-3.866 3.134-7 7-7z" fill="#fe646f"/><path d="m175.537 224.003v95.992h-15.453v-88.992c0-3.866 3.134-7 7-7z" fill="#fd4755"/><g><g><path d="m416.086 327.725h-319.998c-4.268 0-7.726-3.459-7.726-7.726s3.459-7.726 7.726-7.726h319.998c4.268 0 7.726 3.459 7.726 7.726s-3.459 7.726-7.726 7.726z" fill="#68748f"/></g></g><path d="m121.088 96.001h-18c-3.866 0-7-3.134-7-7v-18c0-3.866 3.134-7 7-7h18c3.866 0 7 3.134 7 7v18c0 3.866-3.134 7-7 7z" fill="#fe646f"/><path d="m121.088 160.001h-18c-3.866 0-7-3.134-7-7v-18c0-3.866 3.134-7 7-7h18c3.866 0 7 3.134 7 7v18c0 3.866-3.134 7-7 7z" fill="#aee69c"/><g><g><path d="m288.087 71.728h-127.999c-4.268 0-7.726-3.459-7.726-7.726 0-4.268 3.459-7.726 7.726-7.726h127.999c4.268 0 7.726 3.459 7.726 7.726 0 4.268-3.459 7.726-7.726 7.726z" fill="#68748f"/></g></g><g><g><path d="m288.087 103.727h-127.999c-4.268 0-7.726-3.459-7.726-7.726 0-4.268 3.459-7.726 7.726-7.726h127.999c4.268 0 7.726 3.459 7.726 7.726 0 4.268-3.459 7.726-7.726 7.726z" fill="#68748f"/></g></g><g><g><path d="m224.087 135.727h-63.999c-4.268 0-7.726-3.459-7.726-7.726s3.459-7.726 7.726-7.726h63.999c4.268 0 7.726 3.459 7.726 7.726s-3.459 7.726-7.726 7.726z" fill="#68748f"/></g></g><g><g><path d="m224.087 167.727h-63.999c-4.268 0-7.726-3.459-7.726-7.726s3.459-7.726 7.726-7.726h63.999c4.268 0 7.726 3.459 7.726 7.726s-3.459 7.726-7.726 7.726z" fill="#68748f"/></g></g></g></svg>