<svg width="999.9999999999999" height="999.9999999999999" xmlns="http://www.w3.org/2000/svg">
 <g>
  <title>Layer 1</title>
  <g id="svg_26">
   <path d="m990,405.9c-11.8,20.1 -24.5,27.3 -40.6,23.1c-17.5,-4.6 -25,-17.1 -25,-41.7c0,-54.6 0.6,-109.2 -0.3,-163.8c-0.3,-20.1 5.9,-34.5 24.4,-42.9c5.8,0 11.7,0 17.5,0c10.9,5.1 18.9,13.2 24.1,24.1c-0.1,67.1 -0.1,134.2 -0.1,201.2z" fill="#93999e" id="svg_2"/>
   <path d="m10,594.1c11.8,-20.1 24.5,-27.3 40.6,-23.1c17.5,4.6 25,17.1 25,41.7c0,54.6 -0.6,109.2 0.3,163.8c0.3,20.1 -5.9,34.5 -24.4,42.9c-5.8,0 -11.7,0 -17.5,0c-10.9,-5.1 -18.9,-13.2 -24.1,-24.1c0.1,-67.1 0.1,-134.2 0.1,-201.2z" fill="#93999e" id="svg_3"/>
   <path d="m211.7,594.1c-4,-21.4 -9.8,-41.9 -11.4,-62.8c-9,-117.9 34.9,-211.2 132.7,-278.1c48.6,-33.2 103.4,-48.1 162,-48.4c106.1,-0.5 212.2,-0.2 318.3,-0.1c53.8,0 91.6,37.8 91.4,91.7c-0.1,15.2 -0.1,30.8 -3.4,45.5c-8.6,38.5 -42.5,65.1 -82.2,66.1c-13.8,0.4 -27.7,0.1 -42.6,0.1c2.8,11.6 5.7,22.3 8,33.1c25.2,118.6 -25.6,240.9 -127.6,307.7c-49.6,32.5 -104.2,48.2 -163.1,48.5c-101.7,0.4 -203.4,0.1 -305.1,0.1c-56,0 -93.3,-37.2 -93,-93.4c0.1,-14.5 0.1,-29.4 3.3,-43.4c8.7,-39 42.8,-65.8 82.9,-66.6c9.9,-0.2 20,0 29.8,0zm8.3,-93.3c-0.1,151.7 122.8,274.8 274.5,274.8c150.8,0 274.2,-122.5 274.6,-272.6c0.4,-152.8 -122,-276.3 -274,-276.5c-151.7,-0.2 -275,122.7 -275.1,274.3zm389.5,-274.2c2.7,2.2 3.2,2.8 3.8,3c69.6,31.4 120.4,81.7 152.2,151.2c1.2,2.6 5.9,5.1 9,5.2c14.9,0.5 29.9,0.5 44.8,0.1c29.5,-0.7 55.3,-21.1 61.2,-49.9c2.7,-13 2.2,-26.8 2.2,-40.2c0.2,-41.5 -27.7,-69.4 -68.9,-69.4c-59.7,-0.1 -119.5,0 -179.2,0c-7.6,0 -15.2,0 -25.1,0zm-232.2,549c0.1,-0.6 0.3,-1.2 0.4,-1.8c-2.4,-1.2 -4.8,-2.5 -7.3,-3.7c-57.5,-26.9 -102.1,-67.8 -133.6,-122.9c-6,-10.5 -9.8,-25 -18.9,-30c-9.5,-5.2 -24.1,-1.4 -36.5,-1.2c-29.9,0.6 -56,21.1 -62,50.4c-2.6,12.7 -2.1,26 -2.1,39.1c-0.2,42.3 27.4,70 69.4,70.1c60.5,0.1 120.9,0 181.4,0c3,0 6.1,0 9.2,0z" fill="#93999e" id="svg_4"/>
   <path d="m459.66863,500.6c0,-20.9 16.9,-37.8 37.8,-37.8c20.9,0 37.8,16.9 37.8,37.8c0,20.9 -16.9,37.8 -37.8,37.8c-20.9,0 -37.8,-16.9 -37.8,-37.8l0,0zm170.2,-147.4l-74,75.8c-13.1,-10.9 -29.4,-18.1 -47.1,-20.4l0,-111.8c-128.2,0 -158.7,71.4 -158.7,71.4l74.6,72.7c-11.6,13.8 -19.3,31.1 -21.4,50l-109.7,0c0,128.2 71.5,158.7 71.5,158.7l73,-74.9c13.9,11 30.9,18.1 49.6,19.8l0,109.9c128.2,0 158.7,-71.4 158.7,-71.4l-76.2,-74.4c10.3,-13.2 17.2,-29.2 19.1,-46.8l112,0c0.1,-128.1 -71.4,-158.6 -71.4,-158.6zm-132.4,204.1c-31.3,0 -56.8,-25.4 -56.8,-56.7c0,-31.3 25.5,-56.7 56.8,-56.7c31.3,0 56.7,25.5 56.7,56.7c0,31.3 -25.4,56.7 -56.7,56.7zm93.3,-26.4l13.3,0l0,41.1l-13.3,0l0,-41.1zm24.4,-5.3l15,0l0,51.6l-15,0l0,-51.6zm28.8,-6.7l19.4,0l0,65l-19.4,0l0,-65zm32.7,-2l19.9,0l0,69.1l-19.9,0l0,-69.1zm-251.8,77.7l41,0l0,13.3l-41,0l0,-13.3zm-5.3,24.4l51.5,0l0,15l-51.5,0l0,-15zm-6.7,28.8l65,0l0,19.4l-65,0l0,-19.4zm-2.1,32.7l69.1,0l0,19.9l-69.1,0l0,-19.9zm-22.2,-251.4l13.2,0l0,41l-13.2,0l0,-41l0,0zm-26.1,-5.2l15,0l0,51.5l-15,0l0,-51.5l0,0zm-33.2,-6.7l19.4,0l0,64.9l-19.4,0l0,-64.9zm-33.2,-2.1l19.9,0l0,69.1l-19.9,0l0,-69.1zm234.7,-18.3l41,0l0,13.2l-41,0l0,-13.2zm-5.3,-26.1l51.5,0l0,15l-51.5,0l0,-15l0,0zm-6.7,-33.2l65,0l0,19.4l-65,0l0,-19.4l0,0zm-2,-33.2l69.1,0l0,19.9l-69.1,0l0,-19.9l0,0z" fill="#93999e" id="svg_5" stroke="null"/>
   <g id="svg_9">
    <rect stroke="#000" stroke-width="0" id="svg_1" height="69.17229" width="20.22129" y="516.83894" x="676.47332" fill="#ffc19e"/>
    <rect stroke="#000" stroke-width="0" id="svg_6" height="65.17529" width="19.56707" y="518.88383" x="643.75499" fill="#ffc19e"/>
    <rect stroke="#000" stroke-width="0" id="svg_7" height="51.75794" width="15.20577" y="525.57526" x="615.11328" fill="#ffc19e"/>
    <rect stroke="#000" stroke-width="0" id="svg_8" height="41.30281" width="13.51947" y="530.80283" x="590.66177" fill="#ffc19e"/>
   </g>
   <g transform="rotate(90 445.291 647.621)" id="svg_14">
    <rect stroke="#000" stroke-width="0" id="svg_10" height="69.17229" width="20.22129" y="613.03439" x="478.08603" fill="#ffc19e"/>
    <rect stroke="#000" stroke-width="0" id="svg_11" height="65.17529" width="19.56707" y="615.07928" x="445.3677" fill="#ffc19e"/>
    <rect stroke="#000" stroke-width="0" id="svg_12" height="51.75794" width="15.20577" y="621.77071" x="416.72598" fill="#ffc19e"/>
    <rect stroke="#000" stroke-width="0" id="svg_13" height="41.30281" width="13.51947" y="626.99828" x="392.27448" fill="#ffc19e"/>
   </g>
   <g id="svg_20">
    <rect transform="rotate(180 305.864 449.729)" stroke="#000" stroke-width="0" id="svg_15" height="69.17229" width="20.22129" y="415.143" x="295.75335" fill="#ffc19e"/>
    <rect transform="rotate(180 338.909 449.683)" stroke="#000" stroke-width="0" id="svg_16" height="65.17529" width="19.56707" y="417.09512" x="329.1259" fill="#ffc19e"/>
    <rect transform="rotate(180 370.058 449.7)" stroke="#000" stroke-width="0" id="svg_17" height="51.75794" width="15.20577" y="423.82104" x="362.45469" fill="#ffc19e"/>
    <rect transform="rotate(180 395.027 449.7)" stroke="#000" stroke-width="0" id="svg_18" height="41.30281" width="13.51947" y="429.04861" x="388.26675" fill="#ffc19e"/>
   </g>
   <rect transform="rotate(270 551.339 314.363)" stroke="#000" stroke-width="0" id="svg_21" height="69.17229" width="20.22129" y="279.77709" x="541.22882" fill="#ffc19e"/>
   <rect transform="rotate(270 551.385 347.146)" stroke="#000" stroke-width="0" id="svg_22" height="65.17529" width="20.09062" y="314.55813" x="541.34008" fill="#ffc19e"/>
   <rect transform="rotate(270 551.369 378.296)" stroke="#000" stroke-width="0" id="svg_23" height="51.75794" width="15.72933" y="352.41665" x="543.50398" fill="#ffc19e"/>
   <rect transform="rotate(270 551.369 403.525)" stroke="#000" stroke-width="0" id="svg_24" height="41.30281" width="13.51947" y="382.87398" x="544.60782" fill="#ffc19e"/>
  </g>
 </g>

</svg>
