<svg xmlns="http://www.w3.org/2000/svg" viewBox="0 0 512 512" width="512" height="512">
	<style>
		tspan { white-space:pre }
		.shp0 { fill: #fff3de } 
		.shp1 { fill: #fed2a4 } 
		.shp2 { fill: #d7aa02 } 
		.shp3 { fill: #f6a96c } 
		.shp4 { fill: #d88a55 } 
		.shp5 { fill: #c57a44 } 
		.shp6 { fill: #8bc727 } 
		.shp7 { fill: #81b823 } 
		.shp8 { fill: #78a91f } 
		.shp9 { fill: #ffbd86 } 
		.shp10 { fill: #ffe5c2 } 
		.shp11 { fill: #fac600 } 
		.shp12 { fill: #e8b800 } 
	</style>
	<g id="Layer" style="opacity: 0.6">
		<path id="Layer" class="shp0" d="M256 22C145.31 22 51.77 95.42 21.4 196.21L22.45 197.21L142 197.21C144.21 197.21 146 199 146 201.21L146 230L153 230C155.21 230 157 231.79 157 234L157 358C157 360.21 155.21 362 153 362L31.7 362L30.53 363C36.03 375.9 42.61 388.24 50.15 399.9L51.52 400.13C72.93 384.34 98.31 376 125 376C152.32 376 178.23 384.71 199.93 401.19C202.66 403.27 206.06 404.41 209.5 404.41C212.94 404.41 216.34 403.27 219.07 401.19C240.77 384.71 266.68 376 294 376C306.14 376 318.14 377.75 329.67 381.22C331.17 381.66 332.72 381.89 334.27 381.89C338.62 381.89 342.81 380.1 345.76 376.97C369.44 351.84 401.49 338 436 338C453.39 338 470.22 341.54 486.03 348.52L487.28 347.99C496.16 322.63 501 295.38 501 267C501 131.69 391.31 22 256 22Z" />
		<path id="Layer" class="shp1" d="M162.47 206.06L146 206.06L146 230L153 230C155.21 230 157 231.79 157 234L157 239.92L175.98 239.92L176.05 238.97C176.58 232.26 182.27 227 189 227C190.33 227 191.65 227.2 192.91 227.6L194.01 227.95L194.2 226.81C194.89 222.74 197.42 219.4 200.84 217.56C189.68 210.22 176.42 206.06 162.47 206.06Z" />
		<path id="Layer" class="shp2" d="M147 230L147 201.21C147 198.45 144.76 196.21 142 196.21L21.4 196.21C18.19 206.85 15.7 217.8 13.95 229L18.11 230L147 230Z" />
		<path id="Layer" class="shp3" d="M436 337C400.15 337 367.83 352.1 345.03 376.28C341.19 380.36 335.33 381.87 329.96 380.26C318.57 376.84 306.5 375 294 375C265.62 375 239.45 384.46 218.47 400.4C213.18 404.42 205.82 404.42 200.53 400.4C179.55 384.46 153.38 375 125 375C96.92 375 71.02 384.27 50.15 399.9C54.32 406.34 58.78 412.57 63.52 418.57L65.14 419.01C79.29 413.58 94.14 410.83 109.32 410.83C113.86 410.83 118.47 411.08 123.01 411.58C150.16 414.57 174.96 426.06 194.73 444.81C197.68 447.61 201.55 449.15 205.64 449.15C208.5 449.15 211.32 448.38 213.77 446.91C232.98 435.39 254.94 429.3 277.29 429.3C281.84 429.3 286.45 429.55 291 430.05C303.06 431.38 314.8 434.44 325.89 439.14C327.87 439.98 329.98 440.41 332.13 440.41C335.88 440.41 339.51 439.08 342.34 436.67C364.77 417.57 393.27 407.05 422.59 407.05C427.14 407.05 431.75 407.3 436.3 407.8C441.92 408.42 447.56 409.44 453.1 410.83L454.77 410.23C468.41 391.33 479.43 370.4 487.28 347.99C471.63 340.94 454.28 337 436 337L436 337Z" />
		<g id="Layer">
			<path id="Layer" class="shp4" d="M256 512C337.83 512 410.28 471.87 454.77 410.23C448.83 408.66 442.7 407.5 436.41 406.81C400.77 402.89 366.99 414.37 341.69 435.91C337.43 439.54 331.44 440.41 326.28 438.22C315.33 433.57 303.53 430.43 291.11 429.06C262.9 425.96 235.85 432.5 213.25 446.05C207.56 449.46 200.24 448.66 195.42 444.09C176.31 425.95 151.33 413.69 123.12 410.59C102.16 408.28 81.84 411.31 63.51 418.58C108.38 475.47 177.92 512 256 512Z" />
		</g>
		<path id="Layer" class="shp5" d="M305.35 336.76L285.51 336.76C287.44 344.92 294.75 351 303.5 351C313.37 351 321.4 343.27 321.95 333.54C316.75 335.65 311.14 336.76 305.35 336.76L305.35 336.76Z" />
		<g id="Layer">
			<g id="Layer">
				<path id="Layer" class="shp6" d="M292.75 71.12C272.22 91.66 262.14 118.68 262.5 145.59C262.53 147.51 264.07 149.06 266 149.09C292.91 149.45 319.93 139.37 340.47 118.84C361 98.3 371.08 71.28 370.72 44.37C370.69 42.45 369.14 40.9 367.22 40.87C340.31 40.51 313.29 50.59 292.75 71.12L292.75 71.12Z" />
			</g>
			<g id="Layer">
				<path id="Layer" class="shp7" d="M367.22 40.87C340.31 40.51 313.29 50.59 292.75 71.12C276.25 87.63 266.5 108.33 263.5 129.8L263.5 137.48L280.23 120.75C285.23 106.98 293.22 94.06 304.26 83.03C322.69 64.6 346.35 54.59 370.47 53C370.67 50.13 370.75 47.25 370.72 44.37C370.69 42.44 369.15 40.9 367.22 40.87L367.22 40.87Z" />
			</g>
			<g id="Layer">
				<path id="Layer" class="shp6" d="M171.53 77.97C192.07 98.5 219.09 108.58 246 108.22C247.92 108.2 249.47 106.65 249.5 104.72C249.86 77.81 239.78 50.79 219.25 30.26C198.71 9.73 171.69 -0.35 144.78 0.01C142.86 0.04 141.31 1.58 141.28 3.51C140.92 30.42 151 57.44 171.53 77.97L171.53 77.97Z" />
			</g>
			<g id="Layer">
				<path id="Layer" class="shp7" d="M218.52 87.86C206.01 82.81 194.28 75.23 184.14 65.09C166.08 47.02 156.11 23.93 154.22 0.32C151.08 0.07 147.93 -0.03 144.78 0.01C142.86 0.03 141.31 1.58 141.28 3.51C140.92 30.42 151 57.44 171.53 77.97C190.22 96.66 214.28 106.68 238.73 108.06L218.52 87.86Z" />
			</g>
			<path id="Layer" class="shp8" d="M248.5 117.83L248.5 155.59L248.5 155.59L248.5 190.69C250.96 190.3 253.46 190.1 256 190.1C258.54 190.1 261.04 190.3 263.5 190.69L263.5 158.7L334.78 87.42C337.71 84.49 337.71 79.74 334.78 76.81C331.85 73.88 327.1 73.88 324.17 76.81L263.5 137.48L263.5 114.73C263.5 114.72 263.5 114.72 263.5 114.72L263.5 61.88C263.5 57.74 260.14 54.38 256 54.38C251.86 54.38 248.5 57.74 248.5 61.88L248.5 96.62L187.83 35.94C184.9 33.02 180.15 33.02 177.22 35.94C174.29 38.87 174.29 43.62 177.22 46.55L248.5 117.83Z" />
		</g>
		<g id="Layer">
			<path id="Layer" class="shp3" d="M321.01 231.32L322.02 231.17C322.77 231.05 323.39 231 324 231C330.94 231 336.63 236.43 336.97 243.37L337 244.14L337.75 244.3C338 244.35 338.25 244.43 338.49 244.49L363.34 225.64C362.5 222.72 360.84 220 358.34 217.87C352.57 212.94 344.15 212.7 338.11 217.28L320.88 230.35L321.01 231.32Z" />
		</g>
		<path id="Layer" class="shp9" d="M337.75 244.3C343.69 245.58 348 250.92 348 257C348 257.81 347.92 258.62 347.77 259.42L391 226.63C390.08 224.97 388.88 223.42 387.34 222.11C381.57 217.19 373.15 216.95 367.11 221.53L337.24 244.19L337.75 244.3Z" />
		<g id="Layer">
			<path id="Layer" class="shp5" d="M225.32 263.4L225.62 263.74L285.29 263.74C295.85 263.74 304.52 271.92 305.34 282.27L317.63 282.27L348.91 258.55C348.96 258.04 349 257.53 349 257C349 250.29 344.27 244.68 337.97 243.32C337.61 235.91 331.5 230 324 230C323.27 230 322.57 230.07 321.87 230.18C320.97 223.31 315.11 218 308 218C307.11 218 306.23 218.09 305.39 218.25L290.42 203.32C271.4 184.35 240.61 184.35 221.58 203.32L209.62 215.25C208.77 215.09 207.9 215 207 215C200.07 215 194.34 220.04 193.21 226.65C191.88 226.23 190.47 226 189 226C181.31 226 175.06 232.21 175.01 239.89C194.31 240.32 212.57 248.82 225.32 263.4L225.32 263.4Z" />
		</g>
		<path id="Layer" class="shp1" d="M411.34 225.87C405.57 220.95 397.15 220.71 391.11 225.29L317.29 281.27L305.23 281.27C305.34 282.13 305.42 282.99 305.42 283.87C305.42 294.97 296.39 304 285.29 304L157 304L157 337.76L305.35 337.76C317.34 337.76 328.83 333 337.31 324.52L412.27 249.56C418.93 242.9 418.5 231.98 411.34 225.87L411.34 225.87Z" />
		<path id="Layer" class="shp10" d="M285.29 262.74L226.07 262.74C213.03 247.83 193.99 238.85 173.47 238.85L157 238.85L157 305L285.29 305C296.96 305 306.42 295.54 306.42 283.87C306.42 272.2 296.96 262.74 285.29 262.74L285.29 262.74Z" />
		<g id="Layer">
			<path id="Layer" class="shp11" d="M153 229L13.94 229C12.01 241.38 11 254.07 11 267C11 301.07 17.96 333.52 30.53 363L153 363C155.76 363 158 360.76 158 358L158 234C158 231.24 155.76 229 153 229Z" />
		</g>
		<path id="Layer" class="shp12" d="M40 287C40 278.76 40.41 270.61 41.21 262.58C41.97 254.88 48.41 249 56.15 249L158 249L158 234C158 231.24 155.76 229 153 229L13.94 229C12.01 241.38 11 254.07 11 267C11 301.07 17.96 333.52 30.53 363L52.04 363C44.24 339.07 40 313.53 40 287L40 287Z" />
		<g id="Layer">
			<path id="Layer" class="shp5" d="M318.5 200C313.25 200 309 195.75 309 190.5C309 185.25 313.25 181 318.5 181C323.75 181 328 185.25 328 190.5C328 195.75 323.75 200 318.5 200Z" />
		</g>
		<g id="Layer">
			<path id="Layer" class="shp5" d="M303.5 410C298.25 410 294 405.75 294 400.5C294 395.25 298.25 391 303.5 391C308.75 391 313 395.25 313 400.5C313 405.75 308.75 410 303.5 410Z" />
		</g>
		<g id="Layer">
			<path id="Layer" class="shp5" d="M211.5 372C206.25 372 202 367.75 202 362.5C202 357.25 206.25 353 211.5 353C216.75 353 221 357.25 221 362.5C221 367.75 216.75 372 211.5 372Z" />
		</g>
		<g id="Layer">
			<path id="Layer" class="shp4" d="M260.5 392C254.14 392 249 386.86 249 380.5C249 374.14 254.14 369 260.5 369C266.86 369 272 374.14 272 380.5C272 386.86 266.86 392 260.5 392Z" />
		</g>
		<g id="Layer">
			<path id="Layer" class="shp5" d="M219.5 177C214.25 177 210 172.75 210 167.5C210 162.25 214.25 158 219.5 158C224.75 158 229 162.25 229 167.5C229 172.75 224.75 177 219.5 177Z" />
		</g>
		<g id="Layer">
			<path id="Layer" class="shp5" d="M265.5 442C260.25 442 256 437.75 256 432.5C256 427.25 260.25 423 265.5 423C270.75 423 275 427.25 275 432.5C275 437.75 270.75 442 265.5 442Z" />
		</g>
		<g id="Layer">
			<path id="Layer" class="shp4" d="M356.5 376C351.25 376 347 371.75 347 366.5C347 361.25 351.25 357 356.5 357C361.75 357 366 361.25 366 366.5C366 371.75 361.75 376 356.5 376Z" />
		</g>
		<g id="Layer">
			<path id="Layer" class="shp4" d="M265.62 206C260.11 206 255.47 209.72 254.09 214.79C253.65 216.39 254.92 217.95 256.58 217.95L274.65 217.95C276.31 217.95 277.58 216.39 277.14 214.79C275.76 209.73 271.12 206 265.62 206Z" />
		</g>
		<g id="Layer">
			<path id="Layer" class="shp4" d="M296.62 236C291.11 236 286.47 239.72 285.09 244.79C284.65 246.39 285.92 247.95 287.58 247.95L305.65 247.95C307.31 247.95 308.58 246.39 308.14 244.79C306.76 239.73 302.12 236 296.62 236Z" />
		</g>
		<g id="Layer">
			<path id="Layer" class="shp4" d="M238.4 231.49C232.89 231.49 228.26 235.21 226.87 240.28C226.44 241.88 227.71 243.44 229.36 243.44L247.44 243.44C249.1 243.44 250.37 241.88 249.93 240.28C248.55 235.21 243.91 231.49 238.4 231.49L238.4 231.49Z" />
		</g>
	</g>
</svg>