<svg width="600" height="600" xmlns="http://www.w3.org/2000/svg">
 <!-- Created with Method Draw - http://github.com/duopixel/Method-Draw/ -->

 <g id="Layer_1">
  <title>Layer 1</title>
  <g id="svg_17">
   <g transform="matrix(6.25,0,0,6.25,0,0) " id="svg_16">
    <title transform="translate(0.1939355432987213,0) translate(-22.303030014038086,-6.012121200561523) translate(22.109092712402344,6.012121200561523) translate(0,-6.103515488575795e-7) translate(-16.000001907348633,0) translate(32.000003814697266,0) translate(0,8.000000953674316) ">Layer 1</title>
    <g id="svg_9" stroke="null">
     <path d="m64.78871,64.78871c3.5605,0 6.45719,-2.8967 6.45719,-6.45719l0,-50.36612l-30.99454,0l0,5.16576l-6.45719,0c-4.98366,0 -9.04007,4.05641 -9.04007,9.04007l0,20.66302c0,4.98366 4.05641,9.04007 9.04007,9.04007l6.45719,0l0,6.45719c0,3.5605 2.8967,6.45719 6.45719,6.45719l3.87432,0l0,14.20583c0,4.98366 4.05641,9.04007 9.04007,9.04007l11.62295,0l0,-10.33151l-10.33151,0.00258l0,-12.91697l3.87432,0l0.00001,0.00001zm-24.53734,-30.99454l-12.91439,0l0,-2.58288l12.91439,0l0,2.58288zm-6.45719,-18.08015l6.45719,0l0,12.91439l-12.91439,0l0,-6.45719c0,-3.5605 2.8967,-6.45719 6.45719,-6.45719l0.00001,-0.00001zm0,33.57741c-3.5605,0 -6.45719,-2.8967 -6.45719,-6.45719l0,-6.45719l12.91439,0l0,12.91439l-6.45719,0l-0.00001,-0.00001zm12.91439,12.91439c-2.13604,0 -3.87432,-1.73828 -3.87432,-3.87432l0,-6.45719l0,-23.2459l20.66302,0l0,-2.58288l-20.66302,0l0,-12.91439l0,-2.58288l25.82878,0l0,15.49727l-2.58288,0l0,2.58288l2.58288,0l0,29.7031c0,2.13604 -1.73828,3.87432 -3.87432,3.87432l-3.87432,0l-10.33151,0l-3.87432,0l0.00001,-0.00001zm21.95446,18.08015l0,5.16576l-9.04007,0c-3.5605,0 -6.45719,-2.8967 -6.45719,-6.45719l0,-9.04007l5.16576,0l0,7.74863c0,1.42446 1.15842,2.58288 2.58288,2.58288l7.74863,0l-0.00001,-0.00001zm-10.33151,-12.91439l-5.16576,0l0,-2.58288l5.16576,0l0,2.58288z" fill="#93999E" id="svg_14" stroke="null"/>
     <path d="m33.79417,26.04554c2.13604,0 3.87432,-1.73828 3.87432,-3.87432s-1.73828,-3.87432 -3.87432,-3.87432s-3.87432,1.73828 -3.87432,3.87432s1.73828,3.87432 3.87432,3.87432zm0,-5.16576c0.71287,0 1.29144,0.57856 1.29144,1.29144s-0.57856,1.29144 -1.29144,1.29144s-1.29144,-0.57856 -1.29144,-1.29144s0.57856,-1.29144 1.29144,-1.29144z" fill="#ffc19e" id="svg_13" stroke="null"/>
     <path d="m33.79417,38.95993c-2.13604,0 -3.87432,1.73828 -3.87432,3.87432s1.73828,3.87432 3.87432,3.87432s3.87432,-1.73828 3.87432,-3.87432s-1.73828,-3.87432 -3.87432,-3.87432zm0,5.16576c-0.71287,0 -1.29144,-0.57856 -1.29144,-1.29144s0.57856,-1.29144 1.29144,-1.29144s1.29144,0.57856 1.29144,1.29144s-0.57856,1.29144 -1.29144,1.29144z" fill="#ffc19e" id="svg_12" stroke="null"/>
     <rect fill="#93999E" x="45.41712" y="31.21129" width="2.58288" height="19.37158" id="svg_11" stroke="null"/>
     <rect x="45.41712" y="53.16576" width="2.58288" height="2.58288" fill="#ffc19e" id="svg_10" stroke="null"/>
    </g>
   </g>
  </g>
  <path stroke="#000" id="svg_21" d="m205.88275,236.69406l10.73891,0l0,61.90477l-10.73891,0l0,-61.90477z" opacity="undefined" fill-opacity="null" stroke-opacity="null" stroke-dasharray="null" stroke-width="0" fill="#ffc19e"/>
  <path transform="rotate(49 211.25219726562494,267.6464233398438) " stroke="#000" id="svg_22" d="m205.88275,236.69406l10.73891,0l0,61.90477l-10.73891,0l0,-61.90477z" opacity="undefined" fill-opacity="null" stroke-opacity="null" stroke-dasharray="null" stroke-width="0" fill="#ffc19e"/>
  <path transform="rotate(-45 211.25219726562506,267.6464233398437) " stroke="#000" id="svg_23" d="m205.88275,236.69406l10.73891,0l0,61.90477l-10.73891,0l0,-61.90477z" opacity="undefined" fill-opacity="null" stroke-opacity="null" stroke-dasharray="null" stroke-width="0" fill="#ffc19e"/>
  <path transform="rotate(90 211.25219726562497,267.6464233398438) " stroke="#000" id="svg_24" d="m205.88275,236.69406l10.73891,0l0,61.90477l-10.73891,0l0,-61.90477z" opacity="undefined" fill-opacity="null" stroke-opacity="null" stroke-dasharray="null" stroke-width="0" fill="#ffc19e"/>
  <ellipse stroke="#000" ry="10.47631" rx="10.47631" id="svg_28" cy="268.09487" cx="210.4752" opacity="undefined" stroke-opacity="null" stroke-dasharray="null" stroke-width="0" fill="#ffffff"/>
 </g>
</svg>